<?xml version="1.0" encoding="UTF-8"?>
<svg id="Layer_1" xmlns="http://www.w3.org/2000/svg" version="1.1" viewBox="0 0 2400 2400">
  <!-- Generator: Adobe Illustrator 29.8.2, SVG Export Plug-In . SVG Version: 2.1.1 Build 3)  -->
  <path d="M1621.76,2009.11h0c0,215.88-175.01,390.89-390.89,390.89h0c-428.23,0-775.38-347.15-775.38-775.38v-6.41h775.38c215.88,0,390.89,175.01,390.89,390.89Z" fill="#7bcfff"/>
  <path d="M781.79,455.49v775.38c0,215.88-175.01,390.9-390.89,390.9h0C175.01,1621.76,0,1446.75,0,1230.87H0C0,802.64,347.15,455.49,775.38,455.49h6.41Z" fill="#7bcfff"/>
  <path d="M2400,1169.14h0c0,428.23-347.15,775.38-775.38,775.38h-6.41v-775.38c0-215.88,175.01-390.89,390.89-390.89h0c215.88,0,390.89,175.01,390.89,390.89Z" fill="#7bcfff"/>
  <path d="M1944.52,775.38v6.41h-775.38c-215.88,0-390.89-175-390.89-390.89h0C778.24,175.01,953.25,0,1169.14,0h0c428.23,0,775.38,347.16,775.38,775.38Z" fill="#7bcfff"/>
</svg>